<svg width="55" height="26" viewBox="0 0 55 26" fill="none" xmlns="http://www.w3.org/2000/svg">
<rect width="55" height="26" rx="4" fill="#DB4444"/>
<path d="M17.484 12.14V13.064H12.696V12.14H17.484ZM19.3294 10.508C19.3854 9.772 19.6694 9.196 20.1814 8.78C20.6934 8.364 21.3574 8.156 22.1734 8.156C22.7174 8.156 23.1854 8.256 23.5774 8.456C23.9774 8.648 24.2774 8.912 24.4774 9.248C24.6854 9.584 24.7894 9.964 24.7894 10.388C24.7894 10.884 24.6454 11.312 24.3574 11.672C24.0774 12.032 23.7094 12.264 23.2534 12.368V12.428C23.7734 12.556 24.1854 12.808 24.4894 13.184C24.7934 13.56 24.9454 14.052 24.9454 14.66C24.9454 15.116 24.8414 15.528 24.6334 15.896C24.4254 16.256 24.1134 16.54 23.6974 16.748C23.2814 16.956 22.7814 17.06 22.1974 17.06C21.3494 17.06 20.6534 16.84 20.1094 16.4C19.5654 15.952 19.2614 15.32 19.1974 14.504H20.2534C20.3094 14.984 20.5054 15.376 20.8414 15.68C21.1774 15.984 21.6254 16.136 22.1854 16.136C22.7454 16.136 23.1694 15.992 23.4574 15.704C23.7534 15.408 23.9014 15.028 23.9014 14.564C23.9014 13.964 23.7014 13.532 23.3014 13.268C22.9014 13.004 22.2974 12.872 21.4894 12.872H21.2134V11.96H21.5014C22.2374 11.952 22.7934 11.832 23.1694 11.6C23.5454 11.36 23.7334 10.992 23.7334 10.496C23.7334 10.072 23.5934 9.732 23.3134 9.476C23.0414 9.22 22.6494 9.092 22.1374 9.092C21.6414 9.092 21.2414 9.22 20.9374 9.476C20.6334 9.732 20.4534 10.076 20.3974 10.508H19.3294ZM31.9518 9.272H27.7398V12.008C27.9238 11.752 28.1958 11.544 28.5558 11.384C28.9158 11.216 29.3038 11.132 29.7198 11.132C30.3838 11.132 30.9238 11.272 31.3398 11.552C31.7558 11.824 32.0518 12.18 32.2278 12.62C32.4118 13.052 32.5038 13.512 32.5038 14C32.5038 14.576 32.3958 15.092 32.1798 15.548C31.9638 16.004 31.6318 16.364 31.1838 16.628C30.7438 16.892 30.1958 17.024 29.5398 17.024C28.6998 17.024 28.0198 16.808 27.4998 16.376C26.9798 15.944 26.6638 15.368 26.5518 14.648H27.6198C27.7238 15.104 27.9438 15.46 28.2798 15.716C28.6158 15.972 29.0398 16.1 29.5518 16.1C30.1838 16.1 30.6598 15.912 30.9798 15.536C31.2998 15.152 31.4598 14.648 31.4598 14.024C31.4598 13.4 31.2998 12.92 30.9798 12.584C30.6598 12.24 30.1878 12.068 29.5638 12.068C29.1398 12.068 28.7678 12.172 28.4478 12.38C28.1358 12.58 27.9078 12.856 27.7638 13.208H26.7318V8.312H31.9518V9.272ZM33.7149 10.28C33.7149 9.736 33.8789 9.304 34.2069 8.984C34.5349 8.656 34.9549 8.492 35.4669 8.492C35.9789 8.492 36.3989 8.656 36.7269 8.984C37.0549 9.304 37.2189 9.736 37.2189 10.28C37.2189 10.832 37.0549 11.272 36.7269 11.6C36.3989 11.92 35.9789 12.08 35.4669 12.08C34.9549 12.08 34.5349 11.92 34.2069 11.6C33.8789 11.272 33.7149 10.832 33.7149 10.28ZM40.7229 8.624L35.8629 17H34.7829L39.6429 8.624H40.7229ZM35.4669 9.164C35.1949 9.164 34.9789 9.26 34.8189 9.452C34.6669 9.636 34.5909 9.912 34.5909 10.28C34.5909 10.648 34.6669 10.928 34.8189 11.12C34.9789 11.312 35.1949 11.408 35.4669 11.408C35.7389 11.408 35.9549 11.312 36.1149 11.12C36.2749 10.92 36.3549 10.64 36.3549 10.28C36.3549 9.912 36.2749 9.636 36.1149 9.452C35.9549 9.26 35.7389 9.164 35.4669 9.164ZM38.3109 15.344C38.3109 14.792 38.4749 14.356 38.8029 14.036C39.1309 13.708 39.5509 13.544 40.0629 13.544C40.5749 13.544 40.9909 13.708 41.3109 14.036C41.6389 14.356 41.8029 14.792 41.8029 15.344C41.8029 15.888 41.6389 16.324 41.3109 16.652C40.9909 16.98 40.5749 17.144 40.0629 17.144C39.5509 17.144 39.1309 16.984 38.8029 16.664C38.4749 16.336 38.3109 15.896 38.3109 15.344ZM40.0509 14.228C39.7789 14.228 39.5629 14.324 39.4029 14.516C39.2429 14.7 39.1629 14.976 39.1629 15.344C39.1629 15.704 39.2429 15.98 39.4029 16.172C39.5629 16.356 39.7789 16.448 40.0509 16.448C40.3229 16.448 40.5389 16.356 40.6989 16.172C40.8589 15.98 40.9389 15.704 40.9389 15.344C40.9389 14.976 40.8589 14.7 40.6989 14.516C40.5389 14.324 40.3229 14.228 40.0509 14.228Z" fill="#FAFAFA"/>
</svg>
