<svg width="371" height="57" viewBox="0 0 371 57" fill="none" xmlns="http://www.w3.org/2000/svg">
<rect x="0.5" y="1" width="370" height="55" rx="3.5" stroke="black" stroke-opacity="0.4"/>
<g clip-path="url(#clip0_155_1595)">
<path d="M109.766 28.7764C109.766 27.9607 109.7 27.1406 109.559 26.3381H98.24V30.9591H104.722C104.453 32.4494 103.589 33.7678 102.323 34.6056V37.6039H106.19C108.461 35.5139 109.766 32.4274 109.766 28.7764Z" fill="#4285F4"/>
<path d="M98.2401 40.5008C101.477 40.5008 104.206 39.4382 106.195 37.6039L102.328 34.6055C101.252 35.3375 99.8627 35.752 98.2445 35.752C95.1139 35.752 92.4595 33.6399 91.507 30.8003H87.5166V33.8912C89.5537 37.9434 93.7029 40.5008 98.2401 40.5008Z" fill="#34A853"/>
<path d="M91.5025 30.8003C90.9999 29.3099 90.9999 27.6961 91.5025 26.2057V23.1148H87.5165C85.8145 26.5056 85.8145 30.5004 87.5165 33.8912L91.5025 30.8003Z" fill="#FBBC04"/>
<path d="M98.2401 21.2497C99.9509 21.2232 101.604 21.867 102.843 23.0487L106.269 19.6226C104.1 17.5855 101.221 16.4655 98.2401 16.5008C93.7029 16.5008 89.5537 19.0582 87.5166 23.1148L91.5026 26.2058C92.4506 23.3617 95.1095 21.2497 98.2401 21.2497Z" fill="#EA4335"/>
</g>
<path d="M130.768 34.612C130.032 34.612 129.371 34.484 128.784 34.228C128.208 33.9613 127.755 33.5987 127.424 33.14C127.093 32.6707 126.923 32.132 126.912 31.524H128.464C128.517 32.0467 128.731 32.4893 129.104 32.852C129.488 33.204 130.043 33.38 130.768 33.38C131.461 33.38 132.005 33.2093 132.4 32.868C132.805 32.516 133.008 32.068 133.008 31.524C133.008 31.0973 132.891 30.7507 132.656 30.484C132.421 30.2173 132.128 30.0147 131.776 29.876C131.424 29.7373 130.949 29.588 130.352 29.428C129.616 29.236 129.024 29.044 128.576 28.852C128.139 28.66 127.76 28.3613 127.44 27.956C127.131 27.54 126.976 26.9853 126.976 26.292C126.976 25.684 127.131 25.1453 127.44 24.676C127.749 24.2067 128.181 23.844 128.736 23.588C129.301 23.332 129.947 23.204 130.672 23.204C131.717 23.204 132.571 23.4653 133.232 23.988C133.904 24.5107 134.283 25.204 134.368 26.068H132.768C132.715 25.6413 132.491 25.268 132.096 24.948C131.701 24.6173 131.179 24.452 130.528 24.452C129.92 24.452 129.424 24.612 129.04 24.932C128.656 25.2413 128.464 25.6787 128.464 26.244C128.464 26.6493 128.576 26.98 128.8 27.236C129.035 27.492 129.317 27.6893 129.648 27.828C129.989 27.956 130.464 28.1053 131.072 28.276C131.808 28.4787 132.4 28.6813 132.848 28.884C133.296 29.076 133.68 29.38 134 29.796C134.32 30.2013 134.48 30.756 134.48 31.46C134.48 32.004 134.336 32.516 134.048 32.996C133.76 33.476 133.333 33.8653 132.768 34.164C132.203 34.4627 131.536 34.612 130.768 34.612ZM137.375 24.308C137.097 24.308 136.863 24.212 136.671 24.02C136.479 23.828 136.383 23.5933 136.383 23.316C136.383 23.0387 136.479 22.804 136.671 22.612C136.863 22.42 137.097 22.324 137.375 22.324C137.641 22.324 137.865 22.42 138.047 22.612C138.239 22.804 138.335 23.0387 138.335 23.316C138.335 23.5933 138.239 23.828 138.047 24.02C137.865 24.212 137.641 24.308 137.375 24.308ZM138.079 25.732V34.5H136.623V25.732H138.079ZM144.176 25.588C144.933 25.588 145.595 25.7533 146.16 26.084C146.736 26.4147 147.163 26.8307 147.44 27.332V25.732H148.912V34.692C148.912 35.492 148.741 36.2013 148.4 36.82C148.059 37.4493 147.568 37.94 146.928 38.292C146.299 38.644 145.563 38.82 144.72 38.82C143.568 38.82 142.608 38.548 141.84 38.004C141.072 37.46 140.619 36.7187 140.48 35.78H141.92C142.08 36.3133 142.411 36.74 142.912 37.06C143.413 37.3907 144.016 37.556 144.72 37.556C145.52 37.556 146.171 37.3053 146.672 36.804C147.184 36.3027 147.44 35.5987 147.44 34.692V32.852C147.152 33.364 146.725 33.7907 146.16 34.132C145.595 34.4733 144.933 34.644 144.176 34.644C143.397 34.644 142.688 34.452 142.048 34.068C141.419 33.684 140.923 33.1453 140.56 32.452C140.197 31.7587 140.016 30.9693 140.016 30.084C140.016 29.188 140.197 28.404 140.56 27.732C140.923 27.0493 141.419 26.5213 142.048 26.148C142.688 25.7747 143.397 25.588 144.176 25.588ZM147.44 30.1C147.44 29.4387 147.307 28.8627 147.04 28.372C146.773 27.8813 146.411 27.508 145.952 27.252C145.504 26.9853 145.008 26.852 144.464 26.852C143.92 26.852 143.424 26.98 142.976 27.236C142.528 27.492 142.171 27.8653 141.904 28.356C141.637 28.8467 141.504 29.4227 141.504 30.084C141.504 30.756 141.637 31.3427 141.904 31.844C142.171 32.3347 142.528 32.7133 142.976 32.98C143.424 33.236 143.92 33.364 144.464 33.364C145.008 33.364 145.504 33.236 145.952 32.98C146.411 32.7133 146.773 32.3347 147.04 31.844C147.307 31.3427 147.44 30.7613 147.44 30.1ZM155.645 25.572C156.711 25.572 157.575 25.8973 158.237 26.548C158.898 27.188 159.229 28.116 159.229 29.332V34.5H157.789V29.54C157.789 28.6653 157.57 27.9987 157.133 27.54C156.695 27.0707 156.098 26.836 155.341 26.836C154.573 26.836 153.959 27.076 153.501 27.556C153.053 28.036 152.829 28.7347 152.829 29.652V34.5H151.373V25.732H152.829V26.98C153.117 26.532 153.506 26.1853 153.997 25.94C154.498 25.6947 155.047 25.572 155.645 25.572ZM173.649 25.732V34.5H172.193V33.204C171.915 33.652 171.526 34.004 171.025 34.26C170.534 34.5053 169.99 34.628 169.393 34.628C168.71 34.628 168.097 34.4893 167.553 34.212C167.009 33.924 166.577 33.4973 166.257 32.932C165.947 32.3667 165.793 31.6787 165.793 30.868V25.732H167.233V30.676C167.233 31.54 167.451 32.2067 167.889 32.676C168.326 33.1347 168.923 33.364 169.681 33.364C170.459 33.364 171.073 33.124 171.521 32.644C171.969 32.164 172.193 31.4653 172.193 30.548V25.732H173.649ZM177.563 27.348C177.851 26.8467 178.278 26.4307 178.843 26.1C179.419 25.7587 180.086 25.588 180.843 25.588C181.622 25.588 182.326 25.7747 182.955 26.148C183.595 26.5213 184.096 27.0493 184.459 27.732C184.822 28.404 185.003 29.188 185.003 30.084C185.003 30.9693 184.822 31.7587 184.459 32.452C184.096 33.1453 183.595 33.684 182.955 34.068C182.326 34.452 181.622 34.644 180.843 34.644C180.096 34.644 179.435 34.4787 178.859 34.148C178.294 33.8067 177.862 33.3853 177.563 32.884V38.66H176.107V25.732H177.563V27.348ZM183.515 30.084C183.515 29.4227 183.382 28.8467 183.115 28.356C182.848 27.8653 182.486 27.492 182.027 27.236C181.579 26.98 181.083 26.852 180.539 26.852C180.006 26.852 179.51 26.9853 179.051 27.252C178.603 27.508 178.24 27.8867 177.963 28.388C177.696 28.8787 177.563 29.4493 177.563 30.1C177.563 30.7613 177.696 31.3427 177.963 31.844C178.24 32.3347 178.603 32.7133 179.051 32.98C179.51 33.236 180.006 33.364 180.539 33.364C181.083 33.364 181.579 33.236 182.027 32.98C182.486 32.7133 182.848 32.3347 183.115 31.844C183.382 31.3427 183.515 30.756 183.515 30.084ZM202.865 25.732L200.129 34.5H198.625L196.513 27.54L194.401 34.5H192.897L190.145 25.732H191.633L193.649 33.092L195.825 25.732H197.313L199.441 33.108L201.425 25.732H202.865ZM205.062 24.308C204.785 24.308 204.55 24.212 204.358 24.02C204.166 23.828 204.07 23.5933 204.07 23.316C204.07 23.0387 204.166 22.804 204.358 22.612C204.55 22.42 204.785 22.324 205.062 22.324C205.329 22.324 205.553 22.42 205.734 22.612C205.926 22.804 206.022 23.0387 206.022 23.316C206.022 23.5933 205.926 23.828 205.734 24.02C205.553 24.212 205.329 24.308 205.062 24.308ZM205.766 25.732V34.5H204.31V25.732H205.766ZM210.024 26.932V32.1C210.024 32.5267 210.114 32.8307 210.296 33.012C210.477 33.1827 210.792 33.268 211.24 33.268H212.312V34.5H211C210.189 34.5 209.581 34.3133 209.176 33.94C208.77 33.5667 208.568 32.9533 208.568 32.1V26.932H207.432V25.732H208.568V23.524H210.024V25.732H212.312V26.932H210.024ZM218.428 25.572C219.089 25.572 219.686 25.716 220.22 26.004C220.753 26.2813 221.169 26.7027 221.468 27.268C221.777 27.8333 221.932 28.5213 221.932 29.332V34.5H220.492V29.54C220.492 28.6653 220.273 27.9987 219.836 27.54C219.398 27.0707 218.801 26.836 218.044 26.836C217.276 26.836 216.662 27.076 216.204 27.556C215.756 28.036 215.532 28.7347 215.532 29.652V34.5H214.076V22.66H215.532V26.98C215.82 26.532 216.214 26.1853 216.716 25.94C217.228 25.6947 217.798 25.572 218.428 25.572ZM237.024 26.58C236.714 25.9293 236.266 25.428 235.68 25.076C235.093 24.7133 234.41 24.532 233.632 24.532C232.853 24.532 232.149 24.7133 231.52 25.076C230.901 25.428 230.41 25.94 230.048 26.612C229.696 27.2733 229.52 28.0413 229.52 28.916C229.52 29.7907 229.696 30.5587 230.048 31.22C230.41 31.8813 230.901 32.3933 231.52 32.756C232.149 33.108 232.853 33.284 233.632 33.284C234.72 33.284 235.616 32.9587 236.32 32.308C237.024 31.6573 237.434 30.7773 237.552 29.668H233.104V28.484H239.104V29.604C239.018 30.5213 238.73 31.364 238.24 32.132C237.749 32.8893 237.104 33.492 236.304 33.94C235.504 34.3773 234.613 34.596 233.632 34.596C232.597 34.596 231.653 34.356 230.8 33.876C229.946 33.3853 229.269 32.708 228.768 31.844C228.277 30.98 228.032 30.004 228.032 28.916C228.032 27.828 228.277 26.852 228.768 25.988C229.269 25.1133 229.946 24.436 230.8 23.956C231.653 23.4653 232.597 23.22 233.632 23.22C234.816 23.22 235.861 23.5133 236.768 24.1C237.685 24.6867 238.352 25.5133 238.768 26.58H237.024ZM244.853 34.644C244.032 34.644 243.285 34.4573 242.613 34.084C241.952 33.7107 241.429 33.1827 241.045 32.5C240.672 31.8067 240.485 31.0067 240.485 30.1C240.485 29.204 240.677 28.4147 241.061 27.732C241.456 27.0387 241.989 26.5107 242.661 26.148C243.333 25.7747 244.085 25.588 244.917 25.588C245.749 25.588 246.501 25.7747 247.173 26.148C247.845 26.5107 248.373 27.0333 248.757 27.716C249.152 28.3987 249.349 29.1933 249.349 30.1C249.349 31.0067 249.146 31.8067 248.741 32.5C248.346 33.1827 247.808 33.7107 247.125 34.084C246.442 34.4573 245.685 34.644 244.853 34.644ZM244.853 33.364C245.376 33.364 245.866 33.2413 246.325 32.996C246.784 32.7507 247.152 32.3827 247.429 31.892C247.717 31.4013 247.861 30.804 247.861 30.1C247.861 29.396 247.722 28.7987 247.445 28.308C247.168 27.8173 246.805 27.4547 246.357 27.22C245.909 26.9747 245.424 26.852 244.901 26.852C244.368 26.852 243.877 26.9747 243.429 27.22C242.992 27.4547 242.64 27.8173 242.373 28.308C242.106 28.7987 241.973 29.396 241.973 30.1C241.973 30.8147 242.101 31.4173 242.357 31.908C242.624 32.3987 242.976 32.7667 243.413 33.012C243.85 33.2467 244.33 33.364 244.853 33.364ZM255.087 34.644C254.266 34.644 253.519 34.4573 252.847 34.084C252.186 33.7107 251.663 33.1827 251.279 32.5C250.906 31.8067 250.719 31.0067 250.719 30.1C250.719 29.204 250.911 28.4147 251.295 27.732C251.69 27.0387 252.223 26.5107 252.895 26.148C253.567 25.7747 254.319 25.588 255.151 25.588C255.983 25.588 256.735 25.7747 257.407 26.148C258.079 26.5107 258.607 27.0333 258.991 27.716C259.386 28.3987 259.583 29.1933 259.583 30.1C259.583 31.0067 259.381 31.8067 258.975 32.5C258.581 33.1827 258.042 33.7107 257.359 34.084C256.677 34.4573 255.919 34.644 255.087 34.644ZM255.087 33.364C255.61 33.364 256.101 33.2413 256.559 32.996C257.018 32.7507 257.386 32.3827 257.663 31.892C257.951 31.4013 258.095 30.804 258.095 30.1C258.095 29.396 257.957 28.7987 257.679 28.308C257.402 27.8173 257.039 27.4547 256.591 27.22C256.143 26.9747 255.658 26.852 255.135 26.852C254.602 26.852 254.111 26.9747 253.663 27.22C253.226 27.4547 252.874 27.8173 252.607 28.308C252.341 28.7987 252.207 29.396 252.207 30.1C252.207 30.8147 252.335 31.4173 252.591 31.908C252.858 32.3987 253.21 32.7667 253.647 33.012C254.085 33.2467 254.565 33.364 255.087 33.364ZM265.114 25.588C265.871 25.588 266.532 25.7533 267.098 26.084C267.674 26.4147 268.1 26.8307 268.378 27.332V25.732H269.85V34.692C269.85 35.492 269.679 36.2013 269.338 36.82C268.996 37.4493 268.506 37.94 267.866 38.292C267.236 38.644 266.5 38.82 265.658 38.82C264.506 38.82 263.546 38.548 262.778 38.004C262.01 37.46 261.556 36.7187 261.418 35.78H262.858C263.018 36.3133 263.348 36.74 263.85 37.06C264.351 37.3907 264.954 37.556 265.658 37.556C266.458 37.556 267.108 37.3053 267.61 36.804C268.122 36.3027 268.378 35.5987 268.378 34.692V32.852C268.09 33.364 267.663 33.7907 267.098 34.132C266.532 34.4733 265.871 34.644 265.114 34.644C264.335 34.644 263.626 34.452 262.986 34.068C262.356 33.684 261.86 33.1453 261.498 32.452C261.135 31.7587 260.954 30.9693 260.954 30.084C260.954 29.188 261.135 28.404 261.498 27.732C261.86 27.0493 262.356 26.5213 262.986 26.148C263.626 25.7747 264.335 25.588 265.114 25.588ZM268.378 30.1C268.378 29.4387 268.244 28.8627 267.978 28.372C267.711 27.8813 267.348 27.508 266.89 27.252C266.442 26.9853 265.946 26.852 265.402 26.852C264.858 26.852 264.362 26.98 263.914 27.236C263.466 27.492 263.108 27.8653 262.842 28.356C262.575 28.8467 262.442 29.4227 262.442 30.084C262.442 30.756 262.575 31.3427 262.842 31.844C263.108 32.3347 263.466 32.7133 263.914 32.98C264.362 33.236 264.858 33.364 265.402 33.364C265.946 33.364 266.442 33.236 266.89 32.98C267.348 32.7133 267.711 32.3347 267.978 31.844C268.244 31.3427 268.378 30.7613 268.378 30.1ZM273.766 22.66V34.5H272.31V22.66H273.766ZM284.248 29.78C284.248 30.0573 284.232 30.3507 284.2 30.66H277.192C277.245 31.524 277.538 32.2013 278.072 32.692C278.616 33.172 279.272 33.412 280.04 33.412C280.669 33.412 281.192 33.268 281.608 32.98C282.034 32.6813 282.333 32.2867 282.504 31.796H284.072C283.837 32.6387 283.368 33.3267 282.664 33.86C281.96 34.3827 281.085 34.644 280.04 34.644C279.208 34.644 278.461 34.4573 277.8 34.084C277.149 33.7107 276.637 33.1827 276.264 32.5C275.89 31.8067 275.704 31.0067 275.704 30.1C275.704 29.1933 275.885 28.3987 276.248 27.716C276.61 27.0333 277.117 26.5107 277.768 26.148C278.429 25.7747 279.186 25.588 280.04 25.588C280.872 25.588 281.608 25.7693 282.248 26.132C282.888 26.4947 283.378 26.996 283.72 27.636C284.072 28.2653 284.248 28.98 284.248 29.78ZM282.744 29.476C282.744 28.9213 282.621 28.4467 282.376 28.052C282.13 27.6467 281.794 27.3427 281.368 27.14C280.952 26.9267 280.488 26.82 279.976 26.82C279.24 26.82 278.61 27.0547 278.088 27.524C277.576 27.9933 277.282 28.644 277.208 29.476H282.744Z" fill="black"/>
<defs>
<clipPath id="clip0_155_1595">
<rect width="24" height="24" fill="white" transform="translate(86 16.5)"/>
</clipPath>
</defs>
</svg>
